<mxfile host="app.diagrams.net" modified="2024-07-10T00:37:12.671Z" agent="Mozilla/5.0 (Macintosh; Intel Mac OS X 10_15_7) AppleWebKit/537.36 (KHTML, like Gecko) Chrome/126.0.0.0 Safari/537.36" etag="rSL7ixCtyWYPX3osHmne" version="24.6.4" type="github">
  <diagram name="Page-1" id="zWi2UBD_fkuRtvGfG0TE">
    <mxGraphModel dx="1981" dy="1057" grid="1" gridSize="10" guides="1" tooltips="1" connect="1" arrows="1" fold="1" page="1" pageScale="1" pageWidth="850" pageHeight="1100" math="0" shadow="0">
      <root>
        <mxCell id="0" />
        <mxCell id="1" parent="0" />
        <mxCell id="zKFp7WblKRK58K7L19Fx-49" style="edgeStyle=orthogonalEdgeStyle;rounded=0;orthogonalLoop=1;jettySize=auto;html=1;entryX=0;entryY=0.5;entryDx=0;entryDy=0;" edge="1" parent="1" source="zKFp7WblKRK58K7L19Fx-1" target="zKFp7WblKRK58K7L19Fx-8">
          <mxGeometry relative="1" as="geometry">
            <Array as="points">
              <mxPoint x="500" y="435" />
              <mxPoint x="500" y="245" />
            </Array>
          </mxGeometry>
        </mxCell>
        <mxCell id="zKFp7WblKRK58K7L19Fx-63" style="edgeStyle=orthogonalEdgeStyle;rounded=0;orthogonalLoop=1;jettySize=auto;html=1;" edge="1" parent="1" source="zKFp7WblKRK58K7L19Fx-1" target="zKFp7WblKRK58K7L19Fx-36">
          <mxGeometry relative="1" as="geometry">
            <Array as="points">
              <mxPoint x="385" y="510" />
              <mxPoint x="170" y="510" />
            </Array>
          </mxGeometry>
        </mxCell>
        <mxCell id="zKFp7WblKRK58K7L19Fx-64" style="edgeStyle=orthogonalEdgeStyle;rounded=0;orthogonalLoop=1;jettySize=auto;html=1;entryX=0;entryY=0.5;entryDx=0;entryDy=0;" edge="1" parent="1" source="zKFp7WblKRK58K7L19Fx-1" target="zKFp7WblKRK58K7L19Fx-41">
          <mxGeometry relative="1" as="geometry" />
        </mxCell>
        <mxCell id="zKFp7WblKRK58K7L19Fx-65" style="edgeStyle=orthogonalEdgeStyle;rounded=0;orthogonalLoop=1;jettySize=auto;html=1;entryX=0;entryY=0.75;entryDx=0;entryDy=0;" edge="1" parent="1" source="zKFp7WblKRK58K7L19Fx-1" target="zKFp7WblKRK58K7L19Fx-42">
          <mxGeometry relative="1" as="geometry" />
        </mxCell>
        <mxCell id="zKFp7WblKRK58K7L19Fx-66" style="edgeStyle=orthogonalEdgeStyle;rounded=0;orthogonalLoop=1;jettySize=auto;html=1;" edge="1" parent="1" source="zKFp7WblKRK58K7L19Fx-1" target="zKFp7WblKRK58K7L19Fx-43">
          <mxGeometry relative="1" as="geometry" />
        </mxCell>
        <mxCell id="zKFp7WblKRK58K7L19Fx-1" value="&lt;font size=&quot;3&quot;&gt;Recruiting App Data Model&lt;/font&gt;" style="rounded=1;whiteSpace=wrap;html=1;" vertex="1" parent="1">
          <mxGeometry x="300" y="390" width="170" height="90" as="geometry" />
        </mxCell>
        <mxCell id="zKFp7WblKRK58K7L19Fx-9" style="edgeStyle=orthogonalEdgeStyle;rounded=0;orthogonalLoop=1;jettySize=auto;html=1;" edge="1" parent="1" source="zKFp7WblKRK58K7L19Fx-2">
          <mxGeometry relative="1" as="geometry">
            <mxPoint x="200" y="190" as="targetPoint" />
          </mxGeometry>
        </mxCell>
        <mxCell id="zKFp7WblKRK58K7L19Fx-10" style="edgeStyle=orthogonalEdgeStyle;rounded=0;orthogonalLoop=1;jettySize=auto;html=1;entryX=0.5;entryY=1;entryDx=0;entryDy=0;" edge="1" parent="1" source="zKFp7WblKRK58K7L19Fx-2" target="zKFp7WblKRK58K7L19Fx-4">
          <mxGeometry relative="1" as="geometry" />
        </mxCell>
        <mxCell id="zKFp7WblKRK58K7L19Fx-11" style="edgeStyle=orthogonalEdgeStyle;rounded=0;orthogonalLoop=1;jettySize=auto;html=1;entryX=0.25;entryY=1;entryDx=0;entryDy=0;" edge="1" parent="1" source="zKFp7WblKRK58K7L19Fx-2" target="zKFp7WblKRK58K7L19Fx-3">
          <mxGeometry relative="1" as="geometry" />
        </mxCell>
        <mxCell id="zKFp7WblKRK58K7L19Fx-12" style="edgeStyle=orthogonalEdgeStyle;rounded=0;orthogonalLoop=1;jettySize=auto;html=1;entryX=0.5;entryY=1;entryDx=0;entryDy=0;" edge="1" parent="1" source="zKFp7WblKRK58K7L19Fx-2" target="zKFp7WblKRK58K7L19Fx-5">
          <mxGeometry relative="1" as="geometry" />
        </mxCell>
        <mxCell id="zKFp7WblKRK58K7L19Fx-13" style="edgeStyle=orthogonalEdgeStyle;rounded=0;orthogonalLoop=1;jettySize=auto;html=1;entryX=0;entryY=0.75;entryDx=0;entryDy=0;" edge="1" parent="1" source="zKFp7WblKRK58K7L19Fx-2" target="zKFp7WblKRK58K7L19Fx-6">
          <mxGeometry relative="1" as="geometry" />
        </mxCell>
        <mxCell id="zKFp7WblKRK58K7L19Fx-14" style="edgeStyle=orthogonalEdgeStyle;rounded=0;orthogonalLoop=1;jettySize=auto;html=1;entryX=0;entryY=0.75;entryDx=0;entryDy=0;" edge="1" parent="1" source="zKFp7WblKRK58K7L19Fx-2" target="zKFp7WblKRK58K7L19Fx-7">
          <mxGeometry relative="1" as="geometry" />
        </mxCell>
        <mxCell id="zKFp7WblKRK58K7L19Fx-2" value="&lt;font size=&quot;3&quot;&gt;Users&lt;/font&gt;" style="rounded=1;whiteSpace=wrap;html=1;" vertex="1" parent="1">
          <mxGeometry x="130" y="210" width="140" height="70" as="geometry" />
        </mxCell>
        <mxCell id="zKFp7WblKRK58K7L19Fx-3" value="Candidate" style="rounded=1;whiteSpace=wrap;html=1;" vertex="1" parent="1">
          <mxGeometry x="30" y="80" width="100" height="50" as="geometry" />
        </mxCell>
        <mxCell id="zKFp7WblKRK58K7L19Fx-4" value="Recruiter" style="rounded=1;whiteSpace=wrap;html=1;" vertex="1" parent="1">
          <mxGeometry x="150" y="80" width="100" height="50" as="geometry" />
        </mxCell>
        <mxCell id="zKFp7WblKRK58K7L19Fx-5" value="Hiring Manager" style="rounded=1;whiteSpace=wrap;html=1;" vertex="1" parent="1">
          <mxGeometry x="270" y="80" width="100" height="50" as="geometry" />
        </mxCell>
        <mxCell id="zKFp7WblKRK58K7L19Fx-6" value="Standard employee" style="rounded=1;whiteSpace=wrap;html=1;" vertex="1" parent="1">
          <mxGeometry x="345" y="150" width="110" height="50" as="geometry" />
        </mxCell>
        <mxCell id="zKFp7WblKRK58K7L19Fx-7" value="Interviewer" style="rounded=1;whiteSpace=wrap;html=1;" vertex="1" parent="1">
          <mxGeometry x="345" y="230" width="105" height="50" as="geometry" />
        </mxCell>
        <mxCell id="zKFp7WblKRK58K7L19Fx-25" style="edgeStyle=orthogonalEdgeStyle;rounded=0;orthogonalLoop=1;jettySize=auto;html=1;entryX=1;entryY=0.75;entryDx=0;entryDy=0;" edge="1" parent="1" source="zKFp7WblKRK58K7L19Fx-8" target="zKFp7WblKRK58K7L19Fx-23">
          <mxGeometry relative="1" as="geometry" />
        </mxCell>
        <mxCell id="zKFp7WblKRK58K7L19Fx-30" value="" style="edgeStyle=orthogonalEdgeStyle;rounded=0;orthogonalLoop=1;jettySize=auto;html=1;" edge="1" parent="1" source="zKFp7WblKRK58K7L19Fx-8" target="zKFp7WblKRK58K7L19Fx-21">
          <mxGeometry relative="1" as="geometry" />
        </mxCell>
        <mxCell id="zKFp7WblKRK58K7L19Fx-34" style="edgeStyle=orthogonalEdgeStyle;rounded=0;orthogonalLoop=1;jettySize=auto;html=1;entryX=0;entryY=0.64;entryDx=0;entryDy=0;entryPerimeter=0;" edge="1" parent="1" source="zKFp7WblKRK58K7L19Fx-8" target="zKFp7WblKRK58K7L19Fx-18">
          <mxGeometry relative="1" as="geometry">
            <Array as="points">
              <mxPoint x="690" y="190" />
              <mxPoint x="730" y="190" />
              <mxPoint x="730" y="192" />
            </Array>
          </mxGeometry>
        </mxCell>
        <mxCell id="zKFp7WblKRK58K7L19Fx-8" value="&lt;font size=&quot;3&quot;&gt;Position&lt;/font&gt;" style="rounded=1;whiteSpace=wrap;html=1;" vertex="1" parent="1">
          <mxGeometry x="590" y="210" width="140" height="70" as="geometry" />
        </mxCell>
        <mxCell id="zKFp7WblKRK58K7L19Fx-15" value="Date Opened" style="rounded=1;whiteSpace=wrap;html=1;" vertex="1" parent="1">
          <mxGeometry x="510" y="80" width="100" height="50" as="geometry" />
        </mxCell>
        <mxCell id="zKFp7WblKRK58K7L19Fx-16" value="Date Closed" style="rounded=1;whiteSpace=wrap;html=1;" vertex="1" parent="1">
          <mxGeometry x="630" y="80" width="100" height="50" as="geometry" />
        </mxCell>
        <mxCell id="zKFp7WblKRK58K7L19Fx-17" value="Job Description" style="rounded=1;whiteSpace=wrap;html=1;" vertex="1" parent="1">
          <mxGeometry x="740" y="80" width="100" height="50" as="geometry" />
        </mxCell>
        <mxCell id="zKFp7WblKRK58K7L19Fx-18" value="Location" style="rounded=1;whiteSpace=wrap;html=1;" vertex="1" parent="1">
          <mxGeometry x="760" y="160" width="100" height="50" as="geometry" />
        </mxCell>
        <mxCell id="zKFp7WblKRK58K7L19Fx-19" value="Skills" style="rounded=1;whiteSpace=wrap;html=1;" vertex="1" parent="1">
          <mxGeometry x="760" y="220" width="100" height="50" as="geometry" />
        </mxCell>
        <mxCell id="zKFp7WblKRK58K7L19Fx-20" value="Skills" style="rounded=1;whiteSpace=wrap;html=1;" vertex="1" parent="1">
          <mxGeometry x="520" y="310" width="80" height="40" as="geometry" />
        </mxCell>
        <mxCell id="zKFp7WblKRK58K7L19Fx-21" value="Experience" style="rounded=1;whiteSpace=wrap;html=1;" vertex="1" parent="1">
          <mxGeometry x="620" y="310" width="80" height="40" as="geometry" />
        </mxCell>
        <mxCell id="zKFp7WblKRK58K7L19Fx-22" value="Start Date" style="rounded=1;whiteSpace=wrap;html=1;" vertex="1" parent="1">
          <mxGeometry x="720" y="310" width="90" height="40" as="geometry" />
        </mxCell>
        <mxCell id="zKFp7WblKRK58K7L19Fx-23" value="Hiring Manager" style="rounded=1;whiteSpace=wrap;html=1;" vertex="1" parent="1">
          <mxGeometry x="500" y="150" width="90" height="45" as="geometry" />
        </mxCell>
        <mxCell id="zKFp7WblKRK58K7L19Fx-24" style="edgeStyle=orthogonalEdgeStyle;rounded=0;orthogonalLoop=1;jettySize=auto;html=1;entryX=0.9;entryY=1.02;entryDx=0;entryDy=0;entryPerimeter=0;" edge="1" parent="1" source="zKFp7WblKRK58K7L19Fx-8" target="zKFp7WblKRK58K7L19Fx-15">
          <mxGeometry relative="1" as="geometry" />
        </mxCell>
        <mxCell id="zKFp7WblKRK58K7L19Fx-26" style="edgeStyle=orthogonalEdgeStyle;rounded=0;orthogonalLoop=1;jettySize=auto;html=1;" edge="1" parent="1" source="zKFp7WblKRK58K7L19Fx-8">
          <mxGeometry relative="1" as="geometry">
            <mxPoint x="660" y="130" as="targetPoint" />
          </mxGeometry>
        </mxCell>
        <mxCell id="zKFp7WblKRK58K7L19Fx-27" style="edgeStyle=orthogonalEdgeStyle;rounded=0;orthogonalLoop=1;jettySize=auto;html=1;entryX=0.1;entryY=1;entryDx=0;entryDy=0;entryPerimeter=0;" edge="1" parent="1" source="zKFp7WblKRK58K7L19Fx-8" target="zKFp7WblKRK58K7L19Fx-17">
          <mxGeometry relative="1" as="geometry">
            <Array as="points">
              <mxPoint x="690" y="150" />
              <mxPoint x="750" y="150" />
            </Array>
          </mxGeometry>
        </mxCell>
        <mxCell id="zKFp7WblKRK58K7L19Fx-31" style="edgeStyle=orthogonalEdgeStyle;rounded=0;orthogonalLoop=1;jettySize=auto;html=1;entryX=0.663;entryY=0;entryDx=0;entryDy=0;entryPerimeter=0;" edge="1" parent="1" source="zKFp7WblKRK58K7L19Fx-8" target="zKFp7WblKRK58K7L19Fx-20">
          <mxGeometry relative="1" as="geometry" />
        </mxCell>
        <mxCell id="zKFp7WblKRK58K7L19Fx-32" style="edgeStyle=orthogonalEdgeStyle;rounded=0;orthogonalLoop=1;jettySize=auto;html=1;entryDx=0;entryDy=0;entryPerimeter=0;" edge="1" parent="1" source="zKFp7WblKRK58K7L19Fx-8" target="zKFp7WblKRK58K7L19Fx-22">
          <mxGeometry relative="1" as="geometry">
            <Array as="points">
              <mxPoint x="660" y="300" />
              <mxPoint x="765" y="300" />
            </Array>
          </mxGeometry>
        </mxCell>
        <mxCell id="zKFp7WblKRK58K7L19Fx-35" style="edgeStyle=orthogonalEdgeStyle;rounded=0;orthogonalLoop=1;jettySize=auto;html=1;entryDx=0;entryDy=0;entryPerimeter=0;" edge="1" parent="1" source="zKFp7WblKRK58K7L19Fx-8" target="zKFp7WblKRK58K7L19Fx-19">
          <mxGeometry relative="1" as="geometry" />
        </mxCell>
        <mxCell id="zKFp7WblKRK58K7L19Fx-45" style="edgeStyle=orthogonalEdgeStyle;rounded=0;orthogonalLoop=1;jettySize=auto;html=1;" edge="1" parent="1" source="zKFp7WblKRK58K7L19Fx-36" target="zKFp7WblKRK58K7L19Fx-39">
          <mxGeometry relative="1" as="geometry" />
        </mxCell>
        <mxCell id="zKFp7WblKRK58K7L19Fx-46" style="edgeStyle=orthogonalEdgeStyle;rounded=0;orthogonalLoop=1;jettySize=auto;html=1;entryX=0.5;entryY=0;entryDx=0;entryDy=0;" edge="1" parent="1" source="zKFp7WblKRK58K7L19Fx-36" target="zKFp7WblKRK58K7L19Fx-38">
          <mxGeometry relative="1" as="geometry" />
        </mxCell>
        <mxCell id="zKFp7WblKRK58K7L19Fx-47" style="edgeStyle=orthogonalEdgeStyle;rounded=0;orthogonalLoop=1;jettySize=auto;html=1;entryX=0.5;entryY=0;entryDx=0;entryDy=0;" edge="1" parent="1" source="zKFp7WblKRK58K7L19Fx-36" target="zKFp7WblKRK58K7L19Fx-37">
          <mxGeometry relative="1" as="geometry" />
        </mxCell>
        <mxCell id="zKFp7WblKRK58K7L19Fx-36" value="&lt;font size=&quot;3&quot;&gt;Job Applications&lt;/font&gt;" style="rounded=1;whiteSpace=wrap;html=1;" vertex="1" parent="1">
          <mxGeometry x="80" y="590" width="130" height="70" as="geometry" />
        </mxCell>
        <mxCell id="zKFp7WblKRK58K7L19Fx-37" value="Candidate" style="rounded=1;whiteSpace=wrap;html=1;" vertex="1" parent="1">
          <mxGeometry x="30" y="710" width="100" height="50" as="geometry" />
        </mxCell>
        <mxCell id="zKFp7WblKRK58K7L19Fx-38" value="Position" style="rounded=1;whiteSpace=wrap;html=1;" vertex="1" parent="1">
          <mxGeometry x="150" y="710" width="90" height="50" as="geometry" />
        </mxCell>
        <mxCell id="zKFp7WblKRK58K7L19Fx-39" value="Cover Letter" style="rounded=1;whiteSpace=wrap;html=1;" vertex="1" parent="1">
          <mxGeometry x="250" y="600" width="90" height="50" as="geometry" />
        </mxCell>
        <mxCell id="zKFp7WblKRK58K7L19Fx-40" value="Status" style="rounded=1;whiteSpace=wrap;html=1;" vertex="1" parent="1">
          <mxGeometry x="20" y="510" width="100" height="50" as="geometry" />
        </mxCell>
        <mxCell id="zKFp7WblKRK58K7L19Fx-54" style="edgeStyle=orthogonalEdgeStyle;rounded=0;orthogonalLoop=1;jettySize=auto;html=1;entryX=0.5;entryY=0;entryDx=0;entryDy=0;" edge="1" parent="1" source="zKFp7WblKRK58K7L19Fx-41" target="zKFp7WblKRK58K7L19Fx-51">
          <mxGeometry relative="1" as="geometry" />
        </mxCell>
        <mxCell id="zKFp7WblKRK58K7L19Fx-41" value="&lt;font size=&quot;3&quot;&gt;Review&lt;/font&gt;" style="rounded=1;whiteSpace=wrap;html=1;" vertex="1" parent="1">
          <mxGeometry x="425" y="590" width="125" height="70" as="geometry" />
        </mxCell>
        <mxCell id="zKFp7WblKRK58K7L19Fx-60" style="edgeStyle=orthogonalEdgeStyle;rounded=0;orthogonalLoop=1;jettySize=auto;html=1;entryX=0.5;entryY=1;entryDx=0;entryDy=0;" edge="1" parent="1" source="zKFp7WblKRK58K7L19Fx-42" target="zKFp7WblKRK58K7L19Fx-58">
          <mxGeometry relative="1" as="geometry" />
        </mxCell>
        <mxCell id="zKFp7WblKRK58K7L19Fx-61" style="edgeStyle=orthogonalEdgeStyle;rounded=0;orthogonalLoop=1;jettySize=auto;html=1;entryX=0.5;entryY=0;entryDx=0;entryDy=0;" edge="1" parent="1" source="zKFp7WblKRK58K7L19Fx-42" target="zKFp7WblKRK58K7L19Fx-56">
          <mxGeometry relative="1" as="geometry" />
        </mxCell>
        <mxCell id="zKFp7WblKRK58K7L19Fx-62" style="edgeStyle=orthogonalEdgeStyle;rounded=0;orthogonalLoop=1;jettySize=auto;html=1;entryX=0.5;entryY=0;entryDx=0;entryDy=0;" edge="1" parent="1" source="zKFp7WblKRK58K7L19Fx-42" target="zKFp7WblKRK58K7L19Fx-57">
          <mxGeometry relative="1" as="geometry" />
        </mxCell>
        <mxCell id="zKFp7WblKRK58K7L19Fx-42" value="&lt;font size=&quot;3&quot;&gt;Employment Website&lt;/font&gt;" style="rounded=1;whiteSpace=wrap;html=1;" vertex="1" parent="1">
          <mxGeometry x="670" y="590" width="130" height="70" as="geometry" />
        </mxCell>
        <mxCell id="zKFp7WblKRK58K7L19Fx-69" style="edgeStyle=orthogonalEdgeStyle;rounded=0;orthogonalLoop=1;jettySize=auto;html=1;" edge="1" parent="1" source="zKFp7WblKRK58K7L19Fx-43" target="zKFp7WblKRK58K7L19Fx-67">
          <mxGeometry relative="1" as="geometry" />
        </mxCell>
        <mxCell id="zKFp7WblKRK58K7L19Fx-43" value="&lt;font size=&quot;3&quot;&gt;Job Posting&lt;/font&gt;" style="rounded=1;whiteSpace=wrap;html=1;" vertex="1" parent="1">
          <mxGeometry x="270" y="870" width="135" height="80" as="geometry" />
        </mxCell>
        <mxCell id="zKFp7WblKRK58K7L19Fx-44" style="edgeStyle=orthogonalEdgeStyle;rounded=0;orthogonalLoop=1;jettySize=auto;html=1;entryDx=0;entryDy=0;entryPerimeter=0;" edge="1" parent="1" source="zKFp7WblKRK58K7L19Fx-36" target="zKFp7WblKRK58K7L19Fx-40">
          <mxGeometry relative="1" as="geometry" />
        </mxCell>
        <mxCell id="zKFp7WblKRK58K7L19Fx-48" style="edgeStyle=orthogonalEdgeStyle;rounded=0;orthogonalLoop=1;jettySize=auto;html=1;entryX=0.35;entryY=0.986;entryDx=0;entryDy=0;entryPerimeter=0;" edge="1" parent="1" source="zKFp7WblKRK58K7L19Fx-1" target="zKFp7WblKRK58K7L19Fx-2">
          <mxGeometry relative="1" as="geometry" />
        </mxCell>
        <mxCell id="zKFp7WblKRK58K7L19Fx-50" value="Job Application" style="rounded=1;whiteSpace=wrap;html=1;" vertex="1" parent="1">
          <mxGeometry x="350" y="710" width="100" height="50" as="geometry" />
        </mxCell>
        <mxCell id="zKFp7WblKRK58K7L19Fx-51" value="Assessment" style="rounded=1;whiteSpace=wrap;html=1;" vertex="1" parent="1">
          <mxGeometry x="470" y="710" width="100" height="50" as="geometry" />
        </mxCell>
        <mxCell id="zKFp7WblKRK58K7L19Fx-52" value="Rating" style="rounded=1;whiteSpace=wrap;html=1;" vertex="1" parent="1">
          <mxGeometry x="455" y="500" width="100" height="50" as="geometry" />
        </mxCell>
        <mxCell id="zKFp7WblKRK58K7L19Fx-53" style="edgeStyle=orthogonalEdgeStyle;rounded=0;orthogonalLoop=1;jettySize=auto;html=1;entryX=0.32;entryY=0.98;entryDx=0;entryDy=0;entryPerimeter=0;" edge="1" parent="1" source="zKFp7WblKRK58K7L19Fx-41" target="zKFp7WblKRK58K7L19Fx-52">
          <mxGeometry relative="1" as="geometry" />
        </mxCell>
        <mxCell id="zKFp7WblKRK58K7L19Fx-55" style="edgeStyle=orthogonalEdgeStyle;rounded=0;orthogonalLoop=1;jettySize=auto;html=1;entryX=0.58;entryY=0.02;entryDx=0;entryDy=0;entryPerimeter=0;" edge="1" parent="1" source="zKFp7WblKRK58K7L19Fx-41" target="zKFp7WblKRK58K7L19Fx-50">
          <mxGeometry relative="1" as="geometry" />
        </mxCell>
        <mxCell id="zKFp7WblKRK58K7L19Fx-56" value="Website Name" style="rounded=1;whiteSpace=wrap;html=1;" vertex="1" parent="1">
          <mxGeometry x="630" y="710" width="100" height="50" as="geometry" />
        </mxCell>
        <mxCell id="zKFp7WblKRK58K7L19Fx-57" value="Price Per Post" style="rounded=1;whiteSpace=wrap;html=1;" vertex="1" parent="1">
          <mxGeometry x="745" y="710" width="90" height="50" as="geometry" />
        </mxCell>
        <mxCell id="zKFp7WblKRK58K7L19Fx-58" value="Maximum Budget" style="rounded=1;whiteSpace=wrap;html=1;" vertex="1" parent="1">
          <mxGeometry x="685" y="490" width="100" height="45" as="geometry" />
        </mxCell>
        <mxCell id="zKFp7WblKRK58K7L19Fx-67" value="Position" style="rounded=1;whiteSpace=wrap;html=1;" vertex="1" parent="1">
          <mxGeometry x="455" y="880" width="105" height="60" as="geometry" />
        </mxCell>
        <mxCell id="zKFp7WblKRK58K7L19Fx-68" value="Employment Website" style="rounded=1;whiteSpace=wrap;html=1;" vertex="1" parent="1">
          <mxGeometry x="290" y="1010" width="115" height="50" as="geometry" />
        </mxCell>
        <mxCell id="zKFp7WblKRK58K7L19Fx-71" style="edgeStyle=orthogonalEdgeStyle;rounded=0;orthogonalLoop=1;jettySize=auto;html=1;entryX=0.413;entryY=0;entryDx=0;entryDy=0;entryPerimeter=0;" edge="1" parent="1" source="zKFp7WblKRK58K7L19Fx-43" target="zKFp7WblKRK58K7L19Fx-68">
          <mxGeometry relative="1" as="geometry" />
        </mxCell>
      </root>
    </mxGraphModel>
  </diagram>
</mxfile>
